<?xml version="1.0" standalone="no"?>
<!DOCTYPE svg PUBLIC "-//W3C//DTD SVG 20010904//EN"
 "http://www.w3.org/TR/2001/REC-SVG-20010904/DTD/svg10.dtd">
<svg version="1.0" xmlns="http://www.w3.org/2000/svg"
 width="512.000000pt" height="512.000000pt" viewBox="0 0 512.000000 512.000000"
 preserveAspectRatio="xMidYMid meet">
<metadata>
Created by potrace 1.14, written by Peter Selinger 2001-2017
</metadata>
<g transform="translate(0.000000,512.000000) scale(0.100000,-0.100000)"
fill="#000000" stroke="none">
<path d="M0 2560 l0 -2560 2560 0 2560 0 0 2560 0 2560 -2560 0 -2560 0 0
-2560z m1990 343 c372 -871 547 -1271 553 -1262 5 8 273 581 596 1274 l588
1260 477 3 476 2 0 -64 0 -64 -77 -11 c-43 -6 -140 -21 -216 -32 l-137 -22 2
-1480 3 -1481 145 -23 c80 -12 175 -27 213 -34 l67 -11 0 -64 0 -64 -675 0
-675 0 0 64 0 65 48 7 c26 4 126 19 222 33 l175 27 3 1344 c1 761 -2 1340 -7
1335 -4 -6 -307 -655 -672 -1442 l-664 -1433 -40 0 -40 0 -609 1433 c-335 787
-613 1436 -618 1442 -4 5 -7 -596 -6 -1335 l3 -1344 175 -27 c96 -14 196 -29
223 -33 l47 -7 0 -65 0 -64 -565 0 -565 0 0 65 c0 36 3 65 8 66 4 0 99 15 212
32 l205 33 3 1474 c1 811 -2 1478 -6 1482 -6 6 -379 68 -412 68 -6 0 -10 28
-10 65 l0 65 503 0 502 -1 545 -1276z"/>
</g>
</svg>
