<?xml version="1.0" encoding="UTF-8"?>
<svg width="96px" height="96px" version="1.1" viewBox="0 0 752 752" xmlns="http://www.w3.org/2000/svg">
 <g fill="white">
  <path d="m347.59 454.14v-23.68c-24.625 0-44.988-20.363-44.988-44.988v-132.6c0-24.625 20.363-44.988 44.988-44.988h56.828c24.625 0 44.988 20.363 44.988 44.988v132.6c0 24.625-20.363 44.988-44.988 44.988v23.68c37.887 0 68.668-30.781 68.668-68.668l0.003907-132.6c0-37.887-30.781-68.672-68.668-68.672h-56.832c-37.887 0-68.668 30.785-68.668 68.672v132.6c0 37.887 30.781 68.668 68.668 68.668z"/>
  <path d="m366.05 268.97c0.47266 0.47266 0.94531 1.4219 1.4219 1.8945 2.3672 2.3672 5.2109 3.3164 8.5234 3.3164h2.3672c0.94531 0 1.4219-0.47266 2.3672-0.47266 0.47266-0.47266 1.4219-0.47266 1.8945-0.94531s1.4219-0.94531 1.8945-1.4219c0.47266-0.47266 0.94531-0.94531 1.4219-1.8945 0.47266-0.47266 0.94531-1.4219 0.94531-1.8945 0.47266-0.94531 0.47266-1.4219 0.47266-2.3672v-2.3672c0-3.3164-1.4219-6.1562-3.3164-8.5234-0.47266-0.47266-0.94531-0.94531-1.8945-1.4219-0.47266-0.47266-1.4219-0.94531-1.8945-0.94531-0.94531-0.47266-1.4219-0.47266-2.3672-0.47266-3.7891-0.94531-8.0508 0.47266-10.891 3.3164-2.3672 2.3672-3.3164 5.2109-3.3164 8.5234v2.3672c0 0.94531 0.47266 1.4219 0.47266 2.3672 1.4258-0.48047 1.4258-0.007812 1.8984 0.94141z"/>
  <path d="m387.84 373.63c0 6.5391-5.3008 11.84-11.84 11.84s-11.84-5.3008-11.84-11.84c0-6.5391 5.3008-11.84 11.84-11.84s11.84 5.3008 11.84 11.84"/>
  <path d="m387.84 318.22c0 6.5391-5.3008 11.84-11.84 11.84s-11.84-5.3008-11.84-11.84c0-6.5352 5.3008-11.836 11.84-11.836s11.84 5.3008 11.84 11.836"/>
  <path d="m364.16 430.46c0.47266 6.1562 5.6836 10.418 11.84 10.418s10.891-4.7344 11.84-10.418v-0.94531c0-6.6289-5.2109-11.84-11.84-11.84s-11.84 5.2109-11.84 11.84v0.94531z"/>
  <path d="m367.48 493.45c0.47266 0.47266 0.94531 0.94531 1.8945 1.4219 0.47266 0.47266 1.4219 0.94531 1.8945 0.94531 0.94531 0.47266 1.4219 0.47266 2.3672 0.47266h2.3672c3.3164 0 6.1562-1.4219 8.5234-3.3164 2.3672-2.3672 3.3164-5.2109 3.3164-8.5234 0-3.3164-1.4219-6.1562-3.3164-8.5234-4.2617-4.2617-12.312-4.2617-16.574 0-2.3672 2.3672-3.3164 5.2109-3.3164 8.5234 0.003907 3.3164 0.94922 6.6328 2.8438 9z"/>
  <path d="m334.33 514.29c-4.7344 4.7344-4.7344 12.312 0 16.574l33.152 33.152c2.3672 2.3672 5.2109 3.3164 8.5234 3.3164 3.3164 0 6.1562-0.94531 8.5234-3.3164l33.152-33.152c4.7344-4.7344 4.7344-12.312 0-16.574-4.7344-4.2617-12.312-4.7344-16.574 0l-25.105 25.102-24.625-24.625c-4.7344-4.7383-12.312-4.7383-17.047-0.47656z"/>
 </g>
</svg>
